<svg xmlns="http://www.w3.org/2000/svg" xmlns:xlink="http://www.w3.org/1999/xlink" width="500" zoomAndPan="magnify" viewBox="0 0 375 374.999991" height="500" preserveAspectRatio="xMidYMid meet" version="1.0"><defs><g/><clipPath id="8b62b35ef7"><path d="M 3.597656 0 L 371.402344 0 L 371.402344 374 L 3.597656 374 Z M 3.597656 0 " clip-rule="nonzero"/></clipPath><clipPath id="f6d0d159b6"><path d="M 20.847656 0 L 354.152344 0 C 363.679688 0 371.402344 7.722656 371.402344 17.25 L 371.402344 356.878906 C 371.402344 366.40625 363.679688 374.128906 354.152344 374.128906 L 20.847656 374.128906 C 11.320312 374.128906 3.597656 366.40625 3.597656 356.878906 L 3.597656 17.25 C 3.597656 7.722656 11.320312 0 20.847656 0 Z M 20.847656 0 " clip-rule="nonzero"/></clipPath><clipPath id="746bdefdc7"><path d="M 127 231 L 368.847656 231 L 368.847656 316 L 127 316 Z M 127 231 " clip-rule="nonzero"/></clipPath></defs><g clip-path="url(#8b62b35ef7)"><g clip-path="url(#f6d0d159b6)"><path fill="#101010" d="M 3.597656 0 L 371.402344 0 L 371.402344 373.546875 L 3.597656 373.546875 Z M 3.597656 0 " fill-opacity="1" fill-rule="nonzero"/></g></g><path fill="#ffffff" d="M 255.402344 337.804688 C 259.714844 336.523438 263.917969 335.046875 268.007812 333.402344 C 197.230469 347.40625 126.128906 305.464844 105.175781 234.914062 C 84.226562 164.367188 120.917969 90.414062 187.863281 63.519531 C 183.539062 64.375 179.210938 65.429688 174.898438 66.710938 C 100.039062 88.941406 57.371094 167.648438 79.605469 242.507812 C 101.832031 317.371094 180.542969 360.035156 255.402344 337.804688 " fill-opacity="1" fill-rule="nonzero"/><path fill="#a6a6a6" d="M 80.207031 301.914062 C 83.960938 304.859375 87.816406 307.585938 91.746094 310.113281 C 36.230469 257.527344 28.871094 170.34375 76.996094 108.964844 C 125.125 47.585938 211.546875 33.9375 275.859375 75.308594 C 272.460938 72.09375 268.902344 69 265.148438 66.058594 C 200.015625 14.988281 105.816406 26.386719 54.746094 91.515625 C 3.679688 156.648438 15.078125 250.847656 80.207031 301.914062 " fill-opacity="1" fill-rule="nonzero"/><g clip-path="url(#746bdefdc7)"><path fill="#a6a6a6" d="M 219.566406 295.070312 C 180.941406 284.6875 149.171875 261.53125 127.566406 231.375 C 144.601562 268.980469 177.707031 298.949219 220.6875 310.503906 C 276.835938 325.597656 334.15625 305.050781 368.648438 262.722656 C 328.535156 295.773438 273.578125 309.585938 219.566406 295.070312 " fill-opacity="1" fill-rule="nonzero"/></g><g fill="#ffffff" fill-opacity="1"><g transform="translate(139.762478, 248.109401)"><g><path d="M 137.703125 -128.890625 L 91.796875 -128.890625 L 69.484375 0 L 38.359375 0 L 60.671875 -128.890625 L 15.296875 -128.890625 L 19.875 -154.703125 L 142.28125 -154.703125 Z M 137.703125 -128.890625 "/></g></g></g><g fill="#a6a6a6" fill-opacity="1"><g transform="translate(211.270128, 283.170367)"><g><path d="M 1.78125 0 L 23.3125 -123.921875 L 61.953125 -123.828125 C 76.304688 -123.773438 87.085938 -120.851562 94.296875 -115.0625 C 101.503906 -109.269531 104.765625 -101.128906 104.078125 -90.640625 C 103.285156 -78.097656 96.050781 -68.9375 82.375 -63.15625 C 87.3125 -61.445312 91.140625 -58.25 93.859375 -53.5625 C 96.585938 -48.882812 97.753906 -43.367188 97.359375 -37.015625 C 96.566406 -25.328125 91.984375 -16.234375 83.609375 -9.734375 C 75.242188 -3.242188 63.828125 0 49.359375 0 Z M 36.171875 -53.953125 L 30.296875 -20.515625 L 49.953125 -20.421875 C 56.085938 -20.421875 61.222656 -21.9375 65.359375 -24.96875 C 69.503906 -28.007812 71.972656 -32.113281 72.765625 -37.28125 C 73.554688 -42.382812 72.859375 -46.367188 70.671875 -49.234375 C 68.492188 -52.097656 64.820312 -53.644531 59.65625 -53.875 Z M 39.234375 -72 L 56.171875 -71.828125 C 62.460938 -71.941406 67.609375 -73.414062 71.609375 -76.25 C 75.609375 -79.09375 78.007812 -83.035156 78.8125 -88.078125 C 80.226562 -98.066406 74.976562 -103.085938 63.0625 -103.140625 L 44.6875 -103.234375 Z M 39.234375 -72 "/></g></g></g></svg>